<svg xmlns="http://www.w3.org/2000/svg" viewBox="0 0 24 24" fill="currentColor">
  <path d="M12.152 6.896c-.948 0-2.415-1.078-3.96-1.04-2.04.027-3.91 1.183-4.961 3.014-2.117 3.675-.546 9.103 1.519 12.09 1.013 1.454 2.208 3.126 3.805 3.07 1.52-.057 2.115-.968 3.96-.968 1.815 0 2.35.968 3.96.94 1.64-.027 2.66-1.482 3.633-2.958 1.127-1.64 1.591-3.228 1.62-3.315-.038-.016-3.136-1.203-3.174-4.814-.031-3.014 2.46-4.462 2.576-4.542-1.428-2.09-3.623-2.324-4.39-2.376-2-.156-3.675 1.09-4.588 1.09zM15.53 3.83c.843-1.012 1.4-2.427 1.245-3.83-1.207.052-2.662.805-3.532 1.818-.78.896-1.454 2.338-1.273 3.714 1.338.104 2.715-.688 3.56-1.702z"/>
</svg>
